<svg id="图层_1" data-name="图层 1" xmlns="http://www.w3.org/2000/svg" viewBox="0 0 283.46 283.46"><defs><style>.cls-1{fill:#1b58a7;}.cls-2{fill:#fff;}</style></defs><title>about(2) 副本 13</title><path class="cls-1" d="M140.64,5.38A130,130,0,0,0,33.52,209.12L10.61,268.5l69.21-18.15a130,130,0,1,0,60.82-245Z"/><path class="cls-2" d="M211.77,177.58H94.84v-.08a3.55,3.55,0,0,1-.73.08c-2.83,0-5.12-2.9-5.12-6.48s2.29-6.48,5.12-6.48a4.36,4.36,0,0,1,1.48.27H210.94a8.57,8.57,0,0,0,8.39-8.69V77.73A8.57,8.57,0,0,0,210.94,69H71.69a8.57,8.57,0,0,0-8.39,8.69V184.49a8.69,8.69,0,0,0,.05.89,8.69,8.69,0,0,0-.05.89v9.88a8.57,8.57,0,0,0,8.39,8.69H211.77a8.57,8.57,0,0,0,8.39-8.69v-9.88A8.57,8.57,0,0,0,211.77,177.58Z"/><path class="cls-1" d="M80.39,152.22V94h9.86v58.22ZM85.63,128v-9.16h34.12V128Zm28.22,24.19V94h9.86v58.22Z"/><path class="cls-1" d="M147.4,94v58.22H137.33V94Z"/><path class="cls-1" d="M179.46,152.82a41.7,41.7,0,0,1-8.32-.82,34.14,34.14,0,0,1-7.44-2.43,29.76,29.76,0,0,1-6.4-4l5.24-7.65a24.6,24.6,0,0,0,7.78,4.31,28.37,28.37,0,0,0,9.14,1.46c4,0,7.13-.7,9.34-2.08a6.58,6.58,0,0,0,3.33-5.89v0a5.81,5.81,0,0,0-1.68-4.48,10.15,10.15,0,0,0-4.39-2.3,57.55,57.55,0,0,0-5.94-1.27c-2.29-.34-4.6-.78-7-1.3a23.18,23.18,0,0,1-6.48-2.44,12.62,12.62,0,0,1-4.75-4.76,16.44,16.44,0,0,1-1.79-8.27v0q0-8.33,5.67-12.89t16-4.57a31.85,31.85,0,0,1,9.66,1.54,35.36,35.36,0,0,1,9.2,4.55l-4.79,7.88a28.28,28.28,0,0,0-7-3.66,21.9,21.9,0,0,0-7-1.22c-3.8,0-6.73.67-8.81,2a6.42,6.42,0,0,0-3.11,5.71v0a5.76,5.76,0,0,0,1.83,4.62,11.56,11.56,0,0,0,4.79,2.34c2,.51,4.09,1,6.37,1.45s4.51.94,6.75,1.56a23,23,0,0,1,6.13,2.64,12.73,12.73,0,0,1,4.43,4.74,16.15,16.15,0,0,1,1.67,7.87v.08q0,8.25-5.88,12.75T179.46,152.82Z"/></svg>